<svg version="1.2" xmlns="http://www.w3.org/2000/svg" viewBox="0 0 806 806" width="806" height="806">
	<style>
		.s0 { fill: #000000 } 
		.s1 { fill: #ffffff } 
	</style>
	<path id="Forma 1" fill-rule="evenodd" class="s0" d="m403.4 805.57c-222.58 0-402.5-179.92-402.5-402.5 0-222.59 179.92-402.5 402.5-402.5 222.58 0 402.5 179.91 402.5 402.5 0 222.58-179.92 402.5-402.5 402.5z"/>
	<path class="s1" d="m378.4 24c-75.5 5.2-154 36-217.9 85.4-17.9 13.8-56.5 52.5-56.5 56.7 0 0.5 1.8 0.9 3.9 0.9 3.8 0 4.7-0.7 20.3-16.3 9-9 21.2-20.3 27.1-25.2 48.2-39.9 105-67.9 166.6-82 49.6-11.4 115-11.1 167.1 0.7 50.2 11.3 91.9 30.5 154.3 71 14.3 9.3 18.9 11 21 7.6 1.5-2.3 0.5-3.3-13.1-13.5-30.3-22.6-70.3-46.4-95.7-56.9-30.2-12.5-66.1-21.5-104.5-26.4-18-2.2-54.5-3.2-72.6-2z"/>
	<path class="s1" d="m387.8 55.7c-5.6 0.9-5.5 2.9 0.4 9.1 10.6 11.1 19.8 25.4 40.8 63.7 21.9 39.9 46.1 76.9 63.3 96.8 2.7 3.2 4.6 6.2 4.1 6.6-0.5 0.4-3.8 3.2-7.4 6.2-10.5 8.7-39.4 34.4-54.1 47.9-7.4 6.9-20.9 19.3-30 27.7-23.8 22-29.6 28.1-27.6 28.9 0.9 0.3 8.7-0.6 17.4-2 19.2-3.1 30.1-4.3 45.3-5.1 21-1.1 55.2 2.5 86.6 9 3.3 0.7 5.4-0.7 3.2-2.2-0.7-0.4-4.4-2.1-8.3-3.8-15-6.6-25.5-15.3-25.5-21 0.1-4.3 4.3-11.1 11.8-18.7 9.3-9.7 22.2-20.2 23.2-19.1 0.4 0.4 4.5 5.5 9.1 11.3 27.2 34.5 56.5 62.1 89.6 84.3 29.8 20 53.5 29.2 74.8 29.1 12.2-0.1 19.1-2.4 26.3-8.9 10.1-9.1 14.5-22.1 14.5-43 0-23.9-7.1-51.6-17.5-67.8-3.8-6-6.8-6.2-8.1-0.5-1.1 4.8-7.1 10.3-12.9 11.9-16.3 4.4-52.4-7-82.3-25.9-16.3-10.4-36.8-30.4-33.9-33.1 1.8-1.7 37.4-25.1 55-36.1 23-14.4 39.1-23.7 53.2-30.6 6.1-3 11.2-5.8 11.2-6.2-0.1-1.7-2-3.3-9.4-7.7-26-15.4-107.2-52.2-116.4-52.8-2.3-0.2-2.7 0.2-3 2.9-0.2 2.5 0.8 4.4 5.7 10.5 3.4 4.1 6.8 8.8 7.6 10.6 2.4 5 1.9 13.1-1.1 19.2-3.3 6.5-17.7 21.9-28.1 29.7l-7.5 5.8-1.9-2.4c-1-1.4-5.3-7.9-9.6-14.5-26.4-41-63.5-96.3-68.3-101.8-1.2-1.4-29.4-5.7-47.8-7.2-17.1-1.4-36.1-1.8-42.4-0.8zm27.1 20.9c1.5 0.9 4.2 3.9 5.8 6.8 2.9 4.8 27.3 54.4 27.3 55.4 0 1.1-3.6-2.7-6.9-7.3-6.6-9-12.9-19.8-20.1-34.5-3.8-8-7.9-16.2-8.9-18.3-2.1-4-1.4-4.6 2.8-2.1zm94.3 44.4c26 38.7 40.3 62 38.1 62-2.1 0-22.5-27.3-33.4-44.8-6.3-10.1-27.7-50.3-25.7-48.2 0.3 0.3 9.8 14.2 21 31zm130.6 166.9c18.3 9.2 41 15.6 59.7 17 9.1 0.7 9.7 0.8 7.1 1.9-1.5 0.7-5.8 1.7-9.4 2.2-15.9 2.2-35.1-3.7-57.4-17.7-8.3-5.3-23.8-16.9-23.8-17.9 0-0.2 3.6 2.1 8.1 5.2 4.4 3 11.5 7.2 15.7 9.3z"/>
	<path class="s1" d="m271.5 68.9c-19.5 5-41.3 14.6-59 25.9-24.7 15.7-51.6 44-44.3 46.4 0.7 0.3 3.7-0.1 6.8-0.7 19.3-4 19 6.9-2 78.5-10.1 34.4-12.8 46.4-14.5 64.5-2.7 28.3-4.4 33.4-5.9 18.5-2.6-23.8-6.1-49.6-8.6-62.1-8.2-40.9-19.4-58.9-36.8-58.9-21.9 0-50.9 32.1-65.6 72.5-4.8 13.2-9.8 32.7-8.7 33.8 0.5 0.5 3.7-1.9 7.3-5.5 11.1-11.1 20.1-13.6 29-7.9 11.5 7.3 20.3 25.7 29.3 61.1 5.8 22.7 11.5 57.1 11.5 69.3 0 3.3 0.5 4.9 1.5 5.3 0.8 0.3 5.2-1 9.7-3 11.8-5 25.5-9.9 47.2-16.7 10.4-3.3 19.7-6.6 20.7-7.5 1.2-1 1.9-3.9 2.3-9.2 3.4-38.3 12.9-97.4 26.1-162.2 12.8-62.8 22-89.5 39.1-114 6.2-8.9 16.8-19.4 24.2-24 3.4-2.1 5.2-3.8 5-4.9-0.5-2.4-2.3-2.3-14.3 0.8zm-85 136.8c-3.2 16.6-7.1 31.3-13 49-10.4 31.3-7 12.9 5.9-32.2 3.5-12.1 6.9-24.4 7.7-27.4 2.4-9.7 2.1-3.5-0.6 10.6zm-63.4 0.5c6.8 13.4 12.3 34.5 15.4 59.1 1.7 13.2 2 24.6 0.5 21-0.5-1.2-3.2-14-6-28.5-5.7-29-8.8-42.5-12.4-52.3-2.8-7.8-1.7-7.5 2.5 0.7z"/>
	<path class="s1" d="m326.2 72c-39 5.4-68.7 35.6-84.6 86-13.2 41.7-18 98.9-11.1 132.6 2.9 13.8 9.1 29.5 15.4 38.9 4.3 6.3 15.6 16.5 22 19.9 11.9 6.1 16.2 7.1 30.6 7.1 16.4 0 25.3-2.2 42-10.5 20.2-9.9 33.5-19.8 49.7-36.9 25.1-26.5 38.8-60.4 40.4-100.1 1.4-30.6-4.5-58-18.2-85-10.5-20.6-24.6-36-40.5-44-13.2-6.7-31.8-9.9-45.7-8zm40.3 16.7c23.1 11.8 41 39 48.7 74.1 2.4 11.1 3.6 45.1 2 55.7l-1 6-0.1-8.6c-0.7-53.1-22.6-104.4-53.2-124.9-5-3.3-9.7-6-10.5-6-0.8 0-1.4-0.4-1.4-0.9 0-1.3 9.3 1.5 15.5 4.6zm-61.2 4.3c-22.7 16.9-43.9 48.4-56.7 84.3-2.7 7.5-5.1 13.5-5.3 13.3-0.2-0.2 0.9-5.9 2.6-12.7 9.3-38.9 22.6-62.7 44-78.9 6.6-5 19.3-12 22-12 0.8 0-2.2 2.7-6.6 6zm39.8 57.6c7.7 3.9 13.7 15.4 15.8 30.4 1.4 9.9 0.5 32.1-1.8 45.5-6.2 35.8-19.9 61.3-37.6 70.2-8.4 4.2-14.5 3.6-20.3-1.9-8.2-8-10.7-17.9-10.6-43.3 0.2-36.6 9.3-70.6 24-90.2 8.3-11 21.1-15.5 30.5-10.7z"/>
	<path class="s1" d="m715 180.7c-0.8 0.3-3.9 1.6-6.8 2.9l-5.4 2.4 5.4 7.7c22.8 32.7 41.5 79 50.8 125.6 4.8 24.6 6.1 36.5 6.7 64.2 0.8 36.9-1.3 59.8-8.3 90.5-3.6 15.6-10.9 39.7-12.5 41.5-0.5 0.5-0.9 2.2-0.9 3.9 0 5.1-3.1 19.7-5.7 27.1-8.1 22.7-22.1 43.3-45.7 67.3-17.1 17.5-44.1 41.6-63.3 56.6l-6.2 4.8 3.7 4.7c2 2.5 6.5 8 9.9 12.2l6.3 7.7 7.2-6.7c28.2-25.8 44.8-43.6 60.7-64.8 41.4-55.2 66.3-118.8 73.6-188 2-18.7 2-60.7 0-78.3-7.1-62.1-24.8-114-56.3-164.7-9.4-15.1-11.2-17.3-13.2-16.6z"/>
	<path class="s1" d="m51.9 286.3c-15.4 11.5-15.6 11.7-18 19.2-7.3 23.4-11.4 47.4-13 75.6-3.8 69.9 12.5 139.6 47.1 200.6 8.5 14.8 10.5 17.6 11.7 16.1 0.5-0.7 1.6-5.8 2.2-11.3 0.7-5.5 2.5-14.8 4-20.8l2.7-10.7-5.9-10.3c-21.9-37.9-36.6-82.7-40.6-123.2-4.6-46.6-0.7-78.6 16.5-137.8 0.8-2.5-0.5-2.1-6.7 2.6z"/>
	<path class="s1" d="m363 351.4c-11.7 1.5-44.8 7.3-64 11.2-38.8 7.8-83.9 21.4-122.2 36.6-23.1 9.1-55.2 24.9-56.8 27.8-0.9 1.8-0.3 4.3 4.3 15.8 3.1 7.5 8.1 20.2 11.2 28.2 6.9 17.4 10.8 25.2 17.2 34.5 5.9 8.5 7.8 9.1 12.1 3.8 4.4-5.6 27.3-26.2 38.8-34.9 28.9-22 57.4-38.9 86.4-51.2 10.2-4.3 23-8.5 23.8-7.8 0.2 0.3-6.1 5.3-14 11.2-50.9 37.9-112.9 90-114.4 96.1-0.4 1.6 0.6 4.1 3.4 8.5 3.7 6 5.1 8.7 10 20.1 2.5 5.6 5.2 7.1 9.9 5.2 3-1.3 3.3-1.2 4.8 1.1 4.3 6.6 30.5 16.1 30.5 11 0-0.8-2.1-2.1-4.6-3-7.1-2.4-14-7.3-15.8-11.1-1.5-3-1.5-3.8-0.3-6.8 2-4.6 6.4-8 17.9-13.8 24.3-12.2 48.4-17.8 71.7-16.6 18.2 0.9 27.9 6.4 28.9 16.5 0.6 6.7-2.2 12.7-9.5 20.3-25.5 26.8-76.8 44.2-118 40-41.5-4.2-72.3-25.2-74.9-50.9-0.9-8-2.4-9.1-8.5-5.6-2.4 1.3-6.6 3.6-9.3 5l-4.9 2.6-2.4-2.6c-5.3-5.7-11-1.2-15.6 12.2-10.4 30.2-9.2 66.5 3.1 89.7 7.4 13.9 24.4 28.7 42.7 37 22 10.1 55.4 16.5 85.3 16.5 19.1 0 48.5-5 66.1-11.2 12.2-4.3 38.4-17.1 53.4-26.2 31.1-18.7 52.1-37 65.1-56.6 13.6-20.6 20.6-42.4 20.6-64.4 0-17.1-3.2-29.5-11.7-45.9-4.5-8.6-19.7-24.4-28.5-29.6-14.3-8.3-23.8-10.5-42.8-9.8-12.5 0.4-19.6 1.7-35.4 6.3-3 0.8 2.3-2.7 20.4-13.8 31.4-19.2 57.2-37.4 58.9-41.6 3.3-7.9 4.1-29.8 1.6-39.7-3.7-14.4-10.4-17.1-34.5-14.1zm-120.5 35.6c-1.1 0.5-8.3 3.4-16 6.6-25.8 10.5-70.9 33.3-81.2 41.2l-3.3 2.4-1-2.8c-0.6-1.5-0.9-3.3-0.6-4 1.2-3 30.2-18.2 50.6-26.5 12.3-5 49.8-17.8 52-17.8 1 0 0.8 0.3-0.5 0.9zm130.6 84.5c23.8 5.8 43 25 48.4 48.5 1.9 8.3 2.1 23.1 0.6 32.4-0.6 3.2-1.2 6-1.4 6.3-0.2 0.2-0.7-5.6-1-12.9-0.6-14.8-2.4-22.4-8.4-34.3-8.7-17.4-22.8-30.3-40.7-37.5-4.1-1.7-7.9-3-8.5-3-0.5 0-1.3-0.5-1.6-1.1-0.8-1.1 3.3-0.6 12.6 1.6zm-243.2 169.8c20.6 21.3 46.6 35.8 78.4 43.7 9.1 2.2 6.1 2.5-6.3 0.5-42.3-6.9-74-27.2-87-55.9-4.5-9.8-3.6-10.6 2.6-2.5 3.1 4.1 8.6 10.5 12.3 14.2z"/>
	<path class="s1" d="m407.1 351.9c-1.2 1.2-2 2.9-1.7 3.9 0.7 2.4 2.3 12.6 3.1 19.2 0.3 3 0.1 9.8-0.5 15-2.4 21.6-9.6 33.6-27.1 45.1-11.7 7.8-10.7 7.1-8.4 6.1 4.2-1.9 45.5-14.6 56-17.3 6.1-1.5 11.3-2.4 11.7-2.1 0.4 0.4 3.2 19.6 6.3 42.7 3.1 23.1 6.9 52.1 8.6 64.5 1.6 12.4 4.3 32.8 6 45.5 1.6 12.6 3.4 25.7 3.9 29 0.5 3.3 0.6 6.2 0.2 6.6-2 1.9-36.8 8.9-44.3 8.9-3.5 0-4.5 0.6-9.6 6.2-26.1 28.8-59.9 54.3-96 72.5-10.6 5.3-19 10-18.5 10.4 1 0.9 37.5 5.7 53.2 6.9 16.9 1.4 46.2 1.1 64.5-0.6 92.7-8.7 182.2-41.1 245.8-89.1 13.4-10.1 35.1-31.4 44-43.3 40.1-53.1 34.3-107.3-16.2-152.2-30.2-26.9-76.9-48.8-133.5-62.8-43.4-10.7-79.2-15.6-120.7-16.7-24.4-0.6-24.6-0.6-26.8 1.6zm90.4 11.1c7.7 0.6 19.4 1.9 26 3.1 18 3 44.5 10.2 44.5 12.1 0 0.5-0.8 0.7-1.7 0.4-3.3-0.9-22.8-4.5-35.8-6.5-25.5-4-34.3-4.5-71.2-4.6-20 0-35.4-0.3-34.4-0.7 1.9-0.6 24.2-3.4 33.1-4.1 10-0.8 26.3-0.6 39.5 0.3zm142.1 46.9c20.2 9.5 41.3 26.2 54.3 42.9 7.8 10.1 16.5 28.3 19.1 39.6 1.7 7.9 2.8 20.2 2 24.2-0.5 2.3-0.8 3-0.9 1.6-0.2-3.4-3.9-17.8-6.2-24.2-5.6-15.2-17.6-34.6-30.5-49.3-11.2-12.9-23.4-22.7-46.1-37.4-3.7-2.4 0.1-1.2 8.3 2.6zm-104.9 5c25.6 5 58.9 19.3 77.9 33.4 15.7 11.7 20.2 19 21.1 34.7 1.7 27.7-18.6 54.9-60.4 81.1-12.8 8.1-30.9 17.7-31.5 16.9-0.2-0.3-2.6-14.5-5.2-31.5-9.8-62.6-19.5-119.6-23-134.8-0.4-1.5 0.4-1.7 5.5-1.7 3.2 0 10.2 0.9 15.6 1.9zm-75.3 49.3c6.1 21.2 14.2 59 17.5 82.3 3.3 23.5 6.3 57.5 5 57.5-1.9 0-9.8-41.9-14.4-76.3-3.6-26.8-8.9-61.6-10.1-66.1-1.2-4.9 0.5-2.6 2 2.6z"/>
	<path class="s1" d="m53.9 390.2c-1 9.7 1.5 37.5 5.2 57.3 6.1 32.6 16.1 61.4 29.6 84.5 8.3 14.1 7.9 13.9 11.9 8.3l3.3-4.6-4.3-6.1c-11-15.5-22.2-40-29-63.5-6-20.7-12-50.8-13.4-68-0.4-5.3-1.2-8.6-1.9-8.9-0.7-0.2-1.4 0.2-1.4 1z"/>
	<path class="s1" d="m746.5 438.2c-1.3 12.6-3.6 25.6-6.7 38.1-2.2 9.1-2.8 13.1-2 13.9 0.5 0.5 1.5 0.7 2 0.4 1.6-1 6-20.8 7.6-34.1 2.8-22.6 2.8-24.5 1.2-24.5-1 0-1.6 1.8-2.1 6.2z"/>
	<path class="s1" d="m600.5 673.1c-46.7 24.1-94.4 39.3-147.4 46.9-23.8 3.4-38.2 4.4-65.4 4.4-14.1 0.1-24.3 0.4-22.5 0.8 8.4 1.7 26.1 3.1 45.3 3.5 61.2 1.5 118.6-12.6 174.5-42.8 14.2-7.6 38.3-23.1 35.5-22.8-0.6 0.1-9.5 4.6-20 10z"/>
	<path class="s1" d="m608.2 688.5c-1.8 1.2-3.5 2.5-3.7 2.7-0.4 0.3 6.1 25.5 8 31.6 0.4 1 1.1 0.9 3.6-0.3 2.7-1.4 3-2.1 2.5-4.5-0.4-2.4 0-3.1 2.9-4.9 2.9-1.7 3.5-1.8 4.6-0.5 1.5 1.9 2 1.8 5.7-0.9l3.1-2.3-11.7-11.6-11.7-11.6zm11.8 16.5c0 0.3-0.9 1.1-1.9 1.7-1.8 1.1-2.2 0.8-4-4.3-1.2-3-2.1-5.7-2.1-6.1 0-0.7 7.9 8 8 8.7z"/>
	<path class="s1" d="m577.8 706.4c-4.2 2.2-8 4.4-8.4 4.8-1.1 1.2 11.7 29.8 13.4 29.8 0.8 0 2.9-0.8 4.6-1.8 1.7-1.1 5.2-3.1 7.9-4.6l4.7-2.7-1.5-2.9-1.6-3-5.1 2.6c-4.9 2.5-5.2 2.5-6.5 0.8-2.1-2.9-1.6-4 3.1-6.5 4.4-2.3 4.4-2.3 3-5.1l-1.5-2.8-3.9 2c-5 2.6-5.4 2.5-6.8-0.5-1.1-2.4-0.9-2.6 4.1-5.1 2.8-1.5 5.3-2.8 5.5-2.9 0.4-0.3-2.7-6.6-3.1-6.4-0.1 0.1-3.7 2-7.9 4.3z"/>
	<path class="s1" d="m179 709.9c0 1.3 14.6 11.2 28.8 19.5 55.3 32.2 117.8 50.1 182.2 52.2 35.6 1.2 70-2.5 109.2-11.7 7.8-1.8 8.8-2.3 8.8-4.3 0-1.8-6.7-27.6-7.4-28.3-0.1-0.2-4.7 0.9-10.2 2.2-12.7 3.3-33 7-49.2 9.1-17.9 2.4-61.8 2.4-80.2 0.1-35.5-4.5-76.5-16-105.5-29.7l-9-4.2-20.5-0.2c-19.5-0.2-30-1.4-44.2-5.1-1.8-0.5-2.8-0.3-2.8 0.4z"/>
	<path class="s1" d="m556 717.4c-6.8 2.6-11 4.6-11 5.4 0.2 2.4 10.9 29.7 11.8 30 2.1 0.7 14-5.5 15.7-8.2 2.5-3.8 1.5-11.1-2.5-19.2-2.5-5.1-4-6.9-6.6-8-1.8-0.8-3.5-1.4-3.6-1.4-0.2 0.1-1.9 0.7-3.8 1.4zm6.8 11.7c1.3 2.6 2.6 6.5 2.9 8.7 0.5 3.4 0.2 4.2-1.7 5.2-1.2 0.6-2.3 1-2.4 0.8-0.1-0.2-1.9-4.3-3.9-9.3-2.7-6.7-3.4-9.1-2.4-9.7 2.6-1.7 5.1-0.2 7.5 4.3z"/>
	<path class="s1" d="m536.7 725.3c-2.5 1-2.8 1.5-2.2 4.4 0.6 3.4 8.9 27.1 9.8 27.9 0.4 0.4 5.1-1.2 6.6-2.3 0.6-0.4-10.1-31.3-10.8-31.2-0.3 0.1-1.9 0.6-3.4 1.2z"/>
	<path class="s1" d="m516.8 731.6c-3.5 1.8-4.8 4.3-4.8 8.9 0 5.2 4 9 10.5 9.9 5.6 0.9 7.5 2 7.5 4.7 0 2.8-4 3.6-6 1.1-1.5-1.8-1.9-1.9-4.9-0.6-3.4 1.4-3.4 2.1 0.2 6.1 1.6 1.7 3.1 2.3 6.5 2.3 8.9 0 14.5-7.7 10.8-14.9-2.1-3.9-4.9-5.7-10.6-6.5-4.7-0.7-7-2.1-7-4.1 0-2 3.1-2.7 5-1 2 1.8 2.1 1.8 5.5 0.5 2.5-0.9 2.5-1.1 1.1-3.9-0.9-1.6-2.3-3.1-3.1-3.5-2.8-1-7.9-0.6-10.7 1z"/>
</svg>